<mxfile host="app.diagrams.net" modified="2023-06-13T06:13:15.326Z" agent="Mozilla/5.0 (Windows NT 10.0; Win64; x64) AppleWebKit/537.36 (KHTML, like Gecko) Chrome/114.0.0.0 Safari/537.36 Edg/114.0.1823.43" etag="bqiTLxzGJ3Ef7xqHb6JV" version="21.3.8" type="github">
  <diagram name="Page-1" id="90a13364-a465-7bf4-72fc-28e22215d7a0">
    <mxGraphModel dx="809" dy="461" grid="1" gridSize="10" guides="1" tooltips="1" connect="1" arrows="1" fold="1" page="1" pageScale="1.5" pageWidth="1169" pageHeight="826" background="none" math="0" shadow="0">
      <root>
        <mxCell id="0" style=";html=1;" />
        <mxCell id="1" style=";html=1;" parent="0" />
        <mxCell id="ID7oZF-WjWrz0V3iCZTk-6" style="edgeStyle=orthogonalEdgeStyle;rounded=0;orthogonalLoop=1;jettySize=auto;html=1;exitX=1.005;exitY=0.963;exitDx=0;exitDy=0;entryX=0.897;entryY=-0.011;entryDx=0;entryDy=0;entryPerimeter=0;exitPerimeter=0;" edge="1" parent="1" source="ID7oZF-WjWrz0V3iCZTk-3" target="ID7oZF-WjWrz0V3iCZTk-4">
          <mxGeometry relative="1" as="geometry" />
        </mxCell>
        <mxCell id="ID7oZF-WjWrz0V3iCZTk-7" value="RegWrite" style="edgeLabel;html=1;align=center;verticalAlign=middle;resizable=0;points=[];" vertex="1" connectable="0" parent="ID7oZF-WjWrz0V3iCZTk-6">
          <mxGeometry x="0.2638" relative="1" as="geometry">
            <mxPoint x="-20" y="-26" as="offset" />
          </mxGeometry>
        </mxCell>
        <mxCell id="ID7oZF-WjWrz0V3iCZTk-3" value="&lt;font style=&quot;font-size: 24px;&quot;&gt;Control Unit&lt;/font&gt;" style="rounded=1;whiteSpace=wrap;html=1;" vertex="1" parent="1">
          <mxGeometry x="839.5" y="200" width="75" height="270" as="geometry" />
        </mxCell>
        <mxCell id="ID7oZF-WjWrz0V3iCZTk-4" value="&lt;font style=&quot;font-size: 24px;&quot;&gt;RegisterFile&lt;/font&gt;" style="whiteSpace=wrap;html=1;aspect=fixed;" vertex="1" parent="1">
          <mxGeometry x="772" y="515" width="210" height="210" as="geometry" />
        </mxCell>
      </root>
    </mxGraphModel>
  </diagram>
</mxfile>
